#tb 0: 1/25
0,          0,          0,        1,   299520, 0x71549ec1
0,          1,          1,        1,   299520, 0x93d0f22d
0,          2,          2,        1,   299520, 0xfbba976f
0,          3,          3,        1,   299520, 0x40b4f9f5
0,          4,          4,        1,   299520, 0xbfebe8e8
0,          5,          5,        1,   299520, 0x01e92534
0,          6,          6,        1,   299520, 0xd29c9d65
0,          7,          7,        1,   299520, 0xdc3e9ece
0,          8,          8,        1,   299520, 0xf107defe
0,          9,          9,        1,   299520, 0xddfbc99f
0,         10,         10,        1,   299520, 0x997ed882
0,         11,         11,        1,   299520, 0x3c891c1a
0,         12,         12,        1,   299520, 0xb8640c65
0,         13,         13,        1,   299520, 0x3ce3070f
0,         14,         14,        1,   299520, 0xa6606f3b
0,         15,         15,        1,   299520, 0x7ab553ea
0,         16,         16,        1,   299520, 0x3aed294e
0,         17,         17,        1,   299520, 0xe37ac264
0,         18,         18,        1,   299520, 0x8bc4c3a6
0,         19,         19,        1,   299520, 0x3f954838
0,         20,         20,        1,   299520, 0xc83ba0c3
0,         21,         21,        1,   299520, 0x28ca9c5c
0,         22,         22,        1,   299520, 0x804f15f9
0,         23,         23,        1,   299520, 0xe88531dd
0,         24,         24,        1,   299520, 0x11e7f880
0,         25,         25,        1,   299520, 0x839bfd2a
0,         26,         26,        1,   299520, 0x42d27aa0
0,         27,         27,        1,   299520, 0x2f932476
0,         28,         28,        1,   299520, 0x91dc7cfe
0,         29,         29,        1,   299520, 0x08e75060
0,         30,         30,        1,   299520, 0x6beec0ee
0,         31,         31,        1,   299520, 0x1c5d6922
0,         32,         32,        1,   299520, 0x1e730573
0,         33,         33,        1,   299520, 0xd3968bd8
0,         34,         34,        1,   299520, 0x2443c4ef
0,         35,         35,        1,   299520, 0xffb0ca02
0,         36,         36,        1,   299520, 0x47df086b
0,         37,         37,        1,   299520, 0x2b1832e6
0,         38,         38,        1,   299520, 0x39a1b940
0,         39,         39,        1,   299520, 0x7c7a3389
0,         40,         40,        1,   299520, 0xb85ba1fc
0,         41,         41,        1,   299520, 0xf911d605
0,         42,         42,        1,   299520, 0xdf7fd2e7
0,         43,         43,        1,   299520, 0x8c65ae7d
0,         44,         44,        1,   299520, 0xbdae9c84
